
<svg width="996" height="1208" xmlns="http://www.w3.org/2000/svg" xmlns:xlink="http://www.w3.org/1999/xlink"><title>balls-3-left</title><defs><path id="a" d="M0 0h996v1208H0z"/><radialGradient cx="41.834%" cy="31.307%" fx="41.834%" fy="31.307%" r="72.185%" id="c"><stop stop-color="#3E354B" offset="0%"/><stop stop-color="#0D0917" offset="77.865%"/><stop stop-color="#262129" offset="100%"/></radialGradient><radialGradient cx="68.317%" cy="38.38%" fx="68.317%" fy="38.38%" r="73.871%" id="d"><stop stop-color="#7197D4" offset="0%"/><stop stop-color="#4D3E6C" offset="74.501%"/><stop stop-color="#69469F" offset="100%"/></radialGradient><radialGradient cx="68.317%" cy="38.38%" fx="68.317%" fy="38.38%" r="74.137%" gradientTransform="matrix(-.57994 -.81026 .81466 -.5768 .767 1.158)" id="e"><stop stop-color="#394D9C" offset="0%"/><stop offset="74.501%"/><stop stop-color="#513377" offset="100%"/></radialGradient><radialGradient cx="41.834%" cy="31.307%" fx="41.834%" fy="31.307%" r="72.185%" id="f"><stop stop-color="#524C5B" offset="0%"/><stop stop-color="#0D0917" offset="77.865%"/><stop stop-color="#262129" offset="100%"/></radialGradient><radialGradient cx="69.932%" cy="77.805%" fx="69.932%" fy="77.805%" r="109.941%" id="g"><stop stop-color="#FF6C6C" offset="0%"/><stop stop-color="#B000A3" offset="77.865%"/><stop stop-color="#8A0067" offset="100%"/></radialGradient><radialGradient cx="68.317%" cy="38.38%" fx="68.317%" fy="38.38%" r="73.871%" id="h"><stop stop-color="#FFF" offset="0%"/><stop stop-color="#939393" offset="74.501%"/><stop stop-color="#DDD" offset="100%"/></radialGradient><radialGradient cx="68.317%" cy="38.38%" fx="68.317%" fy="38.38%" r="74.023%" gradientTransform="scale(-1 -.9969) rotate(54.492 .746 -1.327)" id="i"><stop stop-color="#555" offset="0%"/><stop offset="74.501%"/><stop stop-color="#3D3D3D" offset="100%"/></radialGradient></defs><g fill="none" fill-rule="evenodd"><mask id="b" fill="#fff"><use xlink:href="#a"/></mask><g mask="url(#b)"><g transform="translate(0 -73)"><circle fill="url(#c)" cx="125.5" cy="1155.5" r="125.5"/><path d="M92.5 0C143.552 0 185 41.448 185 92.5S143.552 185 92.5 185 0 143.552 0 92.5 41.448 0 92.5 0z" fill="url(#d)" transform="translate(811 679)"/><path d="M100.392 184.806c-1.099.088-2.377.118-3.368.164-4.959.232-9.309-.88-12.75-3.485-15.214-11.54-7.06-47.97 18.214-81.37 20.046-26.495 44.842-43.127 61.837-43.128 4.438 0 8.342 1.133 11.492 3.52 3.468 2.629 5.72 6.55 6.834 11.426.15.659.34 1.364.485 2.07A92.912 92.912 0 0 1 185 92.569c0 4.922-.384 9.754-1.125 14.468.063-.611.132-1.2.214-1.762 1.265-8.697-.224-15.583-4.85-19.092-2.164-1.64-4.851-2.42-7.92-2.42-12.5 0-31.312 12.936-46.731 33.31-19.206 25.384-25.877 52.707-14.904 61.023 3.746 2.839 9.07 3.098 15.218 1.195a91.852 91.852 0 0 1-24.35 5.501l-.143.012-.017.002zM36.894 166.53c-17.735-15.609-8.341-59.336 21.842-99.217 24.205-31.993 54.48-51.901 75.74-51.902 5.83 0 10.983 1.497 15.146 4.653 1.523 1.154 3.212 2.338 4.728 3.695a93.158 93.158 0 0 1 14.948 17.223c-1.187-1.461-2.38-2.676-3.542-3.558-3.368-2.551-7.548-3.764-12.319-3.763-19.23.002-48.016 19.703-71.554 50.81-29.373 38.819-39.45 80.702-22.514 93.537 1.786 1.352 4.43 2.533 7.523 3.53a92.19 92.19 0 0 1-29.998-15.008zm128.546-17.055c-11.873 14.925-26.377 22.934-32.86 18.019-6.718-5.087-2.359-22.185 9.742-38.18 9.78-12.92 21.62-21.17 29.353-21.17 1.836-.001 3.44.464 4.729 1.442 5.374 4.07 3.678 15.865-3.406 28.581-.059.089-.106.188-.16.285l-.036.065a92.797 92.797 0 0 1-7.362 10.958zm-14.277 6.66c-3.221-2.438-1.13-10.621 4.663-18.277 5.792-7.653 13.094-11.883 16.314-9.445 3.218 2.436 1.131 10.622-4.664 18.277-5.794 7.657-13.095 11.882-16.313 9.445zM84.186.37A93.36 93.36 0 0 1 92.5 0a92.277 92.277 0 0 1 27.807 4.263c-2.41-.612-4.976-.91-7.67-.91-21.246.001-50.4 18.591-73.314 48.871-26.255 34.697-35.53 73.128-23.598 91.965A92.067 92.067 0 0 1 1.13 107.057c-1.3-18.012 7.28-42.564 24.347-65.116C43.414 18.237 66.012 2.962 84.186.37zm88.832 137.77l-.201.354.01-.02.012-.02.126-.226.033-.059.01-.015.01-.014z" fill="url(#e)" transform="translate(811 679)"/><circle fill="url(#f)" cx="531.5" cy="88.5" r="88.5"/><circle fill="url(#g)" cx="791" cy="113" r="12"/><path d="M85.931 0C51.813.08 19.563 20.575 6.15 54.204 1.99 64.63.013 75.386 0 85.969v.205c.04 34.156 20.544 66.458 54.206 79.888 10.405 4.15 21.136 6.128 31.697 6.148h.333c34.13-.07 66.402-20.572 79.828-54.209 17.608-44.16-3.908-94.236-48.064-111.85C107.6 2.001 96.873.023 86.317 0h-.386z" fill="url(#h)" transform="translate(167 189)"/><path d="M8.233 123.101l-.333-.658c.102.216.213.436.333.658zm2.25 4.442l-2.25-4.442c.54 1.005 1.258 2.075 2.164 3.204 10.777 13.477 43.795 30.496 73.737 38.015 15.55 3.903 27.21 4.48 33.33 2.237l-1.397.527c-6.964 2.29-8.037 2.641-14.205 3.893-4.887.749-9.108 1.404-15.807 1.43-5.996-.132-11.705-.423-20.83-2.597-2.894-.77-2.894-.77-4.311-1.2-2.51-.803-2.604-.837-3.781-1.254-1.982-.736-1.982-.736-3.518-1.348-2.265-.953-2.265-.953-3.446-1.492-2.32-1.102-2.368-1.124-3.525-1.72-2.471-1.314-2.518-1.336-3.789-2.076-2.721-1.627-2.827-1.687-4.269-2.638-3.125-2.15-3.315-2.276-5.072-3.623-3.662-2.957-4.043-3.258-6.378-5.429-4.08-4.05-4.931-4.895-8.345-9.04-4.142-5.557-5.01-6.71-8.308-12.447zM69.733 1.6C74.233.86 78.879.093 85.407 0c7.5.085 12.937.508 21.873 2.596 2.897.764 2.897.764 4.31 1.2 2.525.805 2.525.805 3.786 1.256 1.987.733 1.987.733 3.525 1.344 2.258.956 2.258.956 3.444 1.496 2.27 1.074 2.407 1.144 3.526 1.724 2.464 1.309 2.516 1.335 3.789 2.07 2.714 1.625 2.823 1.69 4.266 2.644 3.127 2.141 3.309 2.268 5.07 3.62 3.671 2.953 4.041 3.259 6.378 5.43 3.427 3.401 4.576 4.547 6.881 7.283.495.577.993 1.165 1.473 1.755 1.935 2.6 4.423 6.128 6.202 8.84 6.676 10.57-7.131 14.083-32.443 7.724C100.7 42.259 71.16 27.03 61.518 14.976 56.493 8.692 57.86 4.51 64.11 2.894L69.734 1.6zm51.719 14.919c2.335.586 4.31.864 5.834.864 3.247 0 4.434-1.264 2.643-3.502-2.631-3.29-10.695-7.45-18.009-9.28-7.312-1.84-11.11-.658-8.473 2.634 2.63 3.29 10.688 7.44 18.005 9.284zM20.974 29.267l.033-.039-.033.039zm-8.37 11.417c5.033-7.513 5.145-7.683 8.37-11.417-2.783 3.244-2.02 8.078 2.946 14.283 14.34 17.93 58.25 40.57 98.082 50.567 30.323 7.61 49.536 5.7 50.66-3.555-.665 7.587-.846 9.503-1.803 13.559-2.277 8.81-2.363 9.149-4.288 13.993-3.749 8.361-3.97 8.857-7.036 13.84l-2.098 3.199c-4.753 6.845-23.417 7.584-51.018.651-40.998-10.289-86.19-33.588-100.944-52.039C1.846 79.233.398 75.41.88 72.384c1.586-7.88 2.01-10.003 5.162-18.617 3.83-8.534 3.898-8.694 6.562-13.083zm104.86 125.873c.086-.031.17-.063.252-.095l-.251.095z" fill="url(#i)" transform="translate(167 189)"/></g></g></g></svg>