
<svg width="2539" height="1029" xmlns="http://www.w3.org/2000/svg"><title>Group 26</title><defs><radialGradient cx="25.326%" cy="8.324%" fx="25.326%" fy="8.324%" r="99.246%" id="a"><stop stop-color="#994BFF" offset="0%"/><stop stop-color="#240068" offset="77.865%"/><stop stop-color="#420067" offset="100%"/></radialGradient><radialGradient cx="41.834%" cy="31.307%" fx="41.834%" fy="31.307%" r="72.185%" id="b"><stop stop-color="#413A4B" offset="0%"/><stop stop-color="#0D0917" offset="77.865%"/><stop stop-color="#262129" offset="100%"/></radialGradient><radialGradient cx="17.382%" cy="34.907%" fx="17.382%" fy="34.907%" r="85.711%" id="c"><stop stop-color="#36DDE8" offset="0%"/><stop stop-color="#006CFF" offset="65.454%"/><stop stop-color="#004AC2" offset="100%"/></radialGradient><radialGradient cx="82.14%" cy="40.002%" fx="82.14%" fy="40.002%" r="91.474%" id="d"><stop stop-color="#00FF65" offset="0%"/><stop stop-color="#00A9B7" offset="100%"/></radialGradient></defs><g transform="translate(-134)" fill="none" fill-rule="evenodd"><circle fill="url(#a)" cx="299.5" cy="854.5" r="25.5"/><circle fill="url(#b)" cx="2588.5" cy="338.5" r="84.5"/><path d="M1165.5 619c57.714 0 104.5-46.786 104.5-104.5S1223.214 410 1165.5 410 1061 456.786 1061 514.5 1107.786 619 1165.5 619zm0 0c57.714 0 104.5-46.786 104.5-104.5S1223.214 410 1165.5 410 1061 456.786 1061 514.5 1107.786 619 1165.5 619zm0 0c57.714 0 104.5-46.786 104.5-104.5S1223.214 410 1165.5 410 1061 456.786 1061 514.5 1107.786 619 1165.5 619zM2389 106c29.271 0 53-23.729 53-53s-23.729-53-53-53-53 23.729-53 53 23.729 53 53 53zm0 0c29.271 0 53-23.729 53-53s-23.729-53-53-53-53 23.729-53 53 23.729 53 53 53zm0 0c29.271 0 53-23.729 53-53s-23.729-53-53-53-53 23.729-53 53 23.729 53 53 53z" fill="url(#b)"/><circle fill="url(#b)" cx="104.5" cy="546.5" r="104.5"/><circle fill="url(#b)" cx="2111.5" cy="939.5" r="89.5"/><circle fill="url(#c)" cx="812" cy="804" r="9"/><circle fill="url(#b)" cx="1877" cy="669" r="28"/><circle fill="url(#d)" cx="586.5" cy="134.5" r="15.5"/><circle fill="url(#b)" cx="1498" cy="75" r="23"/><circle fill="url(#b)" cx="1900.5" cy="243.5" r="13.5"/><circle fill="url(#b)" cx="713.5" cy="320.5" r="51.5"/></g></svg>