
<svg width="1001" height="890" xmlns="http://www.w3.org/2000/svg"><title>balls-3-right</title><defs><radialGradient cx="41.834%" cy="31.307%" fx="41.834%" fy="31.307%" r="72.185%" id="a"><stop stop-color="#413A4B" offset="0%"/><stop stop-color="#0D0917" offset="77.865%"/><stop stop-color="#262129" offset="100%"/></radialGradient><radialGradient cx="82.14%" cy="40.002%" fx="82.14%" fy="40.002%" r="88.902%" id="b"><stop stop-color="#A8FF00" offset="0%"/><stop stop-color="#10B000" offset="100%"/></radialGradient><radialGradient cx="82.14%" cy="40.002%" fx="82.14%" fy="40.002%" r="91.474%" id="c"><stop stop-color="#00FF65" offset="0%"/><stop stop-color="#00A9B7" offset="100%"/></radialGradient><radialGradient cx="68.317%" cy="38.38%" fx="68.317%" fy="38.38%" r="73.871%" id="d"><stop stop-color="#FFF" offset="0%"/><stop stop-color="#939393" offset="74.501%"/><stop stop-color="#DDD" offset="100%"/></radialGradient><radialGradient cx="68.317%" cy="38.38%" fx="68.317%" fy="38.38%" r="73.871%" id="e"><stop stop-color="#555" offset="0%"/><stop offset="74.501%"/><stop stop-color="#3D3D3D" offset="100%"/></radialGradient></defs><g fill="none" fill-rule="evenodd"><circle fill="url(#a)" cx="63" cy="440" r="63"/><circle fill="url(#b)" cx="309.5" cy="592.5" r="36.5"/><circle fill="url(#c)" cx="748.5" cy="811.5" r="78.5"/><path d="M64.942 0C46.174.03 27.564 8.144 14.734 23.79c-22.759 27.764-18.703 68.717 9.06 91.476 27.758 22.759 68.713 18.703 91.47-9.058 22.76-27.762 18.706-68.717-9.056-91.476C94.155 4.854 79.617.028 65.16 0h-.218z" fill="url(#d)" transform="translate(593 65)"/><path d="M66.257 130h-.032c-1.384 0-3.085-.06-5.948-.16l-.722-.071c26.637 1.96 53.976-17.872 63.85-47.896 7.548-22.934 2.942-45.846-10.139-60.45 2.222 2.45 2.647 3.05 6.098 7.901 2.195 3.397 2.416 3.852 5.109 9.373 1.5 3.437 1.604 3.786 3.38 9.592.886 3.384.92 3.617 1.794 9.574.355 3.273.355 3.388.353 9.394-.112 3.15-.129 3.261-.978 9.151-.546 3.032-.546 3.032-2.251 8.887-.804 2.245-1.994 5.189-2.927 7.374a60.853 60.853 0 0 1-1.311 2.637c-1.004 1.82-2.451 4.188-3.552 5.953-1.647 2.45-1.647 2.45-5.347 6.9-1.992 2.237-2.074 2.315-6.322 6.201-2.397 2.044-2.49 2.107-7.332 5.435-2.837 1.798-2.94 1.85-8.38 4.527-3.333 1.475-3.566 1.55-9.456 3.398-3.858 1.025-4.233 1.08-10.493 1.96-2.422.225-3.665.32-5.394.32zm-6.702-.231l-2.268-.22a48.92 48.92 0 0 0 2.268.22zM58.348.313c-6.256.886-6.633.936-10.49 1.97-5.896 1.843-6.124 1.918-9.457 3.39-5.44 2.682-5.54 2.733-8.38 4.53-4.843 3.328-4.933 3.392-7.331 5.433-4.25 3.888-4.328 3.966-6.324 6.202-.153.185-.287.352-.427.518C29.076 7.346 48.347-.226 66.164 4.505 91.41 11.206 104.177 40.05 94.677 68.93c-9.5 28.876-37.674 46.854-62.92 40.157C9.75 103.245-2.768 80.583.67 55.736.127 59.562.101 60.032 0 62.739c0 6.004 0 6.122.354 9.394.875 5.963.909 6.19 1.797 9.576 1.772 5.808 1.882 6.155 3.38 9.594 2.69 5.519 2.91 5.972 5.105 9.373 3.7 5.206 3.922 5.513 6.618 8.467 5.889 6.367 13.426 11.087 22.292 13.442 29.18 7.743 61.738-13.037 72.718-46.415 10.98-33.376-3.775-66.71-32.954-74.455A48.215 48.215 0 0 0 72.713.451L69.725.158C66.847.06 65.143 0 63.754 0c-1.735 0-2.979.093-5.406.313zM.684 55.644l.034-.236c-.01.078-.022.157-.034.236l-.013.092.013-.092zm.045-.313l-.01.077.01-.077.001-.006v.006zm.004-.024l-.002.015.002-.018v.003zm.006-.046v.007l-.001.003-.004.03.004-.03.002-.014v.004zm.002-.014zm.003-.026l-.002.02v.002l.002-.022zm.004-.028l.002-.015-.002.015-.002.02v.003l-.001.002v-.005l.003-.02zm.233-1.601c-.09.587-.162 1.104-.231 1.586a61.65 61.65 0 0 1 1.313-6.436c-.591 2.112-.709 2.767-1.082 4.85zm1.082-4.85c.26-.925.614-2.146 1.12-3.882a65.812 65.812 0 0 0-1.12 3.882zm1.175-4.066a3.595 3.595 0 0 1-.056.184l.047-.163c.002-.005.007-.013.009-.02zm.001-.004l.003-.01-.003.01zm.003-.01c.806-2.237 1.986-5.163 2.92-7.34a65.053 65.053 0 0 0-2.92 7.34zm4.221-9.955c.97-1.762 2.352-4.03 3.44-5.78a65.187 65.187 0 0 0-3.44 5.78zm3.559-5.963a5.029 5.029 0 0 0-.12.183 62.76 62.76 0 0 1 2.657-3.68c-1.1 1.362-1.485 1.93-2.537 3.497zm2.537-3.498c.552-.684 1.289-1.573 2.38-2.89a62.593 62.593 0 0 0-2.38 2.89zm99.707-3.824c-.171-.19-.343-.38-.516-.569l.516.57zM7.71 43.91c5.956-18.105 21.962-30.342 38.041-30.34 2.643 0 5.29.33 7.894 1.02 18.429 4.896 27.75 25.95 20.813 47.035-6.934 21.083-27.5 34.208-45.933 29.317C10.093 86.05.774 64.99 7.709 43.909zm34.21-12.204c-8.88-2.35-18.787 3.973-22.128 14.128-3.341 10.162 1.152 20.307 10.033 22.664 8.88 2.357 18.79-3.968 22.13-14.128 3.346-10.156-1.147-20.303-10.028-22.662-.012-.008-.012-.006-.007-.002l.007.002c.014.015 0 .004-.007-.002z" fill="url(#e)" transform="translate(593 65)"/><circle fill="url(#c)" cx="962.5" cy="38.5" r="38.5"/></g></svg>